# xmcd
#
# Track frame offsets:
# 150
# 14642
# 31701
# 46630
# 61786
#
# Disc length: 976 seconds
#
#
# Revision: 0
# Processed by: cddbd v1.5.2PL0 Copyright (c) Steve Scherf et al.
# Submitted via: FreeRIP 2.951 
#
DISCID=2f03ce05
DTITLE=Mario Reyes - Cielo Rojo - Cielo rojo - Pistas
DYEAR=1900
DGENRE=ranchera
TTITLE0=Mario Reyes - Mi adorado tormento
TTITLE1=Mario Reyes - cielo rojo
TTITLE2=Mario Reyes - Cruz de olvido
TTITLE3=Mario Reyes - El Pastor
TTITLE4=Mario Reyes - Esta tristeza mia
EXTD=
EXTT0=
EXTT1=
EXTT2=
EXTT3=
EXTT4=
PLAYORDER=
